<?xml version="1.0" standalone="no"?>
<!DOCTYPE svg PUBLIC "-//W3C//DTD SVG 20010904//EN"
 "http://www.w3.org/TR/2001/REC-SVG-20010904/DTD/svg10.dtd">
<svg version="1.0" xmlns="http://www.w3.org/2000/svg"
 width="700.000000pt" height="700.000000pt" viewBox="0 0 700.000000 700.000000"
 preserveAspectRatio="xMidYMid meet">
<metadata>
Created by potrace 1.14, written by Peter Selinger 2001-2017
</metadata>
<g transform="translate(0.000000,700.000000) scale(0.100000,-0.100000)"
fill="#000000" stroke="none">
<path d="M3381 6768 c-26 -28 -30 -40 -36 -118 -9 -113 -30 -152 -107 -197
-32 -19 -69 -50 -82 -70 -25 -36 -71 -73 -93 -73 -7 0 -50 -14 -97 -31 -67
-24 -96 -41 -133 -78 -52 -52 -75 -62 -203 -87 -105 -21 -157 -43 -207 -87
-54 -49 -69 -54 -169 -67 -240 -30 -347 -59 -403 -105 -15 -13 -62 -36 -105
-50 -86 -29 -88 -28 -145 37 -61 70 -92 82 -200 80 -90 -2 -98 -4 -123 -30
-23 -23 -29 -41 -39 -115 -15 -122 -2 -156 105 -262 45 -44 99 -94 121 -110
22 -16 58 -46 81 -66 52 -46 108 -66 219 -78 87 -9 90 -10 128 -50 l38 -42 -3
-387 c-5 -467 -6 -476 -96 -562 -32 -30 -71 -80 -88 -110 -27 -50 -36 -57
-116 -97 -51 -25 -103 -59 -126 -83 -49 -51 -100 -68 -251 -80 -108 -9 -117
-8 -153 12 -21 12 -56 45 -77 73 l-39 52 -93 6 c-75 6 -97 4 -117 -9 -33 -22
-50 -69 -58 -161 -6 -72 -4 -84 20 -135 28 -59 112 -146 221 -230 136 -103
155 -111 290 -123 75 -7 82 -9 118 -46 l38 -38 -3 -403 c-5 -474 -4 -470 -95
-557 -32 -31 -67 -74 -77 -96 -21 -45 -54 -85 -70 -85 -30 0 -137 -63 -183
-107 -60 -58 -97 -68 -274 -80 -88 -5 -100 -4 -133 16 -19 12 -51 44 -71 70
-19 27 -42 52 -51 55 -9 3 -55 6 -104 6 -86 0 -89 -1 -114 -31 -14 -17 -26
-34 -26 -38 0 -4 -5 -44 -11 -89 -10 -78 -10 -84 15 -137 28 -62 110 -153 195
-217 31 -23 72 -56 90 -72 53 -44 107 -63 208 -74 101 -10 133 -25 163 -75 19
-31 20 -54 20 -561 l0 -528 34 -34 34 -34 2552 0 2552 0 34 34 34 34 0 528 c0
507 1 530 20 561 30 50 62 65 162 75 101 10 156 29 209 74 18 16 59 48 89 71
82 62 168 157 196 216 28 60 28 61 13 162 -9 55 -19 85 -36 106 -24 28 -27 29
-120 29 l-96 0 -31 -36 c-61 -72 -98 -104 -124 -111 -32 -8 -242 11 -295 27
-20 6 -55 30 -77 52 -24 25 -76 60 -132 87 -88 44 -94 49 -126 106 -18 33 -56
80 -83 105 -81 72 -82 83 -87 550 l-3 395 34 39 c33 39 35 40 140 52 116 14
167 35 230 90 20 19 41 34 46 34 5 0 51 42 103 93 138 136 153 176 128 328
-16 92 -31 105 -143 113 -53 4 -95 2 -107 -4 -10 -6 -34 -31 -52 -56 -18 -25
-51 -57 -74 -70 -41 -24 -44 -24 -155 -14 -169 16 -198 26 -260 90 -20 21 -63
49 -95 64 -99 45 -108 52 -138 107 -16 29 -55 78 -88 108 -58 56 -59 57 -78
151 -17 83 -20 137 -20 440 0 327 1 347 20 378 31 51 70 68 167 76 88 7 163
35 193 71 8 9 46 41 85 70 103 78 198 181 220 238 16 43 17 56 6 135 -10 72
-17 92 -39 114 -25 25 -33 27 -124 29 -112 2 -123 -3 -203 -87 l-50 -53 -52
10 c-62 12 -135 42 -154 65 -34 41 -146 71 -364 99 -140 18 -155 23 -199 67
-43 44 -90 63 -220 92 -131 30 -165 45 -190 86 -18 31 -67 57 -182 95 -89 30
-98 35 -137 87 -15 21 -53 52 -85 71 -73 43 -90 74 -104 189 -10 82 -14 97
-41 126 -30 31 -33 32 -118 32 -86 0 -89 -1 -118 -32z m234 -540 c14 -6 25
-17 25 -24 0 -7 7 -20 16 -28 8 -9 12 -16 8 -16 -17 0 40 -49 69 -60 18 -7 46
-19 64 -26 18 -8 58 -18 90 -22 57 -7 58 -8 80 -54 12 -26 34 -54 47 -63 33
-22 115 -42 201 -50 97 -8 102 -11 124 -59 20 -46 69 -84 117 -90 49 -6 133
-15 257 -27 65 -6 123 -17 128 -23 5 -6 19 -27 32 -45 24 -37 67 -67 107 -74
103 -20 197 -41 210 -47 11 -6 7 -10 -15 -17 -17 -4 -770 -8 -1675 -8 -905 0
-1658 4 -1675 8 -22 7 -26 11 -15 17 13 6 107 27 210 47 52 9 115 64 132 115
4 12 71 23 243 38 200 17 225 27 265 103 15 28 33 49 45 51 11 3 58 9 105 15
151 18 207 47 230 116 12 36 16 38 99 50 25 3 59 12 75 19 17 8 46 19 64 26
34 13 82 72 82 101 0 9 10 21 23 27 30 14 200 15 232 0z m1240 -1023 l35 -36
0 -354 0 -354 -31 -36 -31 -35 -1328 0 -1328 0 -31 35 -31 36 0 353 0 353 37
36 36 37 1318 0 1318 0 36 -35z m-4 -1085 c22 -6 40 -19 47 -34 5 -12 25 -34
42 -47 52 -39 104 -98 107 -122 4 -28 38 -73 52 -69 6 1 11 -2 11 -7 0 -9 40
-27 49 -22 2 2 7 -1 10 -6 7 -10 74 -43 88 -43 6 0 35 -25 66 -55 31 -31 73
-63 93 -71 39 -16 54 -19 184 -34 47 -6 96 -13 110 -16 l25 -7 -25 -7 c-32
-10 -4386 -10 -4420 -1 -22 6 -19 9 25 19 28 6 79 13 115 16 134 11 169 26
245 100 32 31 62 56 67 56 20 0 154 63 175 82 12 11 27 34 34 51 21 51 56 97
91 121 18 12 42 36 53 54 11 17 34 36 50 41 42 13 2659 14 2706 1z m530 -841
l29 -31 0 -363 0 -363 -35 -31 -36 -31 -1839 0 -1839 0 -36 31 -35 31 0 361 0
361 32 33 32 33 1849 0 1849 0 29 -31z m27 -1097 c9 -27 65 -82 88 -88 13 -3
24 -10 24 -14 0 -5 11 -22 25 -39 14 -16 28 -39 30 -50 9 -47 67 -101 108
-101 9 0 22 -6 29 -13 7 -8 30 -19 50 -26 20 -7 61 -36 91 -66 30 -30 68 -60
83 -66 26 -10 265 -48 304 -49 11 0 12 -2 1 -12 -9 -10 -571 -13 -2741 -13
-2170 0 -2732 3 -2741 13 -11 10 -10 12 1 12 8 0 44 5 80 10 36 5 90 12 120
15 70 8 156 46 165 74 3 12 12 21 19 21 15 0 48 34 41 42 -3 3 8 8 24 11 39 8
160 64 184 85 10 9 29 39 43 67 24 53 30 59 101 120 23 20 45 45 48 55 3 10
16 21 28 23 12 2 870 4 1906 3 1570 -1 1885 -3 1889 -14z m495 -827 l37 -36 0
-444 0 -444 -34 -35 -33 -36 -708 0 -707 0 -34 34 -34 34 0 268 c0 260 -1 269
-22 300 -47 68 8 64 -874 64 l-797 0 -44 -45 -43 -45 0 -274 0 -274 -35 -31
-36 -31 -704 0 -704 0 -36 35 -35 36 0 443 0 444 40 36 40 36 2363 0 2364 0
36 -35z m-1778 -745 l0 -185 -625 0 -625 0 -3 175 c-1 96 0 180 2 187 4 11
126 13 628 11 l623 -3 0 -185z"/>
</g>
</svg>
